<svg xmlns="http://www.w3.org/2000/svg" width="1024" height="1024" viewBox="0 0 1024 1024" role="img" aria-label="Funput logo">
  <defs>
    <linearGradient id="funput-top" x1="272" y1="210" x2="862" y2="327" gradientUnits="userSpaceOnUse">
      <stop offset="0" stop-color="#FFA43F"/>
      <stop offset="0.48" stop-color="#FF5C73"/>
      <stop offset="1" stop-color="#F600A5"/>
    </linearGradient>

    <radialGradient id="funput-middle" cx="0" cy="0" r="1" gradientUnits="userSpaceOnUse"
      gradientTransform="translate(542 518) rotate(7) scale(390 265)">
      <stop offset="0" stop-color="#D92BFF"/>
      <stop offset="0.55" stop-color="#B600F1"/>
      <stop offset="1" stop-color="#5600D8"/>
    </radialGradient>

    <linearGradient id="funput-bottom" x1="275" y1="724" x2="548" y2="793" gradientUnits="userSpaceOnUse">
      <stop offset="0" stop-color="#1E72FF"/>
      <stop offset="1" stop-color="#25D9F6"/>
    </linearGradient>

    <linearGradient id="funput-spine" x1="261" y1="152" x2="261" y2="897" gradientUnits="userSpaceOnUse">
      <stop offset="0" stop-color="#FFA43F"/>
      <stop offset="0.33" stop-color="#FF4F78"/>
      <stop offset="0.62" stop-color="#9F00EE"/>
      <stop offset="1" stop-color="#1F78FF"/>
    </linearGradient>
  </defs>

  <!-- Shared left spine, drawn behind the three ribbon leaves -->
  <path fill="url(#funput-spine)"
    d="M261 356C261 239 355 144 472 144H514C392 159 311 245 311 356V846C311 867 302 887 286 901C280 906 271 906 266 900C263 897 261 892 261 887V356Z"/>

  <!-- Top ribbon leaf -->
  <path fill="url(#funput-top)"
    d="M261 548V356C261 239 355 144 472 144H856C861 144 864 148 863 153C856 249 817 313 759 346C725 366 686 362 641 362H496C391 362 303 437 261 548Z"/>

  <!-- Middle ribbon leaf -->
  <path fill="url(#funput-middle)"
    d="M261 743V548C261 444 362 362 496 362H725C728 362 730 365 730 368C728 456 697 523 641 558C599 585 555 572 500 572H458C366 572 291 638 261 743Z"/>

  <!-- Bottom ribbon leaf -->
  <path fill="url(#funput-bottom)"
    d="M261 887V743C261 642 346 572 458 572H541C545 572 548 575 547 579C539 670 502 747 436 794C401 819 360 828 323 839C295 847 278 867 266 895C264 900 261 897 261 887Z"/>
</svg>
